<?xml version="1.0" encoding="utf-8"?>
<!-- Generator: Adobe Illustrator 16.0.3, SVG Export Plug-In . SVG Version: 6.00 Build 0)  -->
<!DOCTYPE svg PUBLIC "-//W3C//DTD SVG 1.1//EN" "http://www.w3.org/Graphics/SVG/1.1/DTD/svg11.dtd">
<svg version="1.1" id="图层_1" xmlns="http://www.w3.org/2000/svg" xmlns:xlink="http://www.w3.org/1999/xlink" x="0px" y="0px"
	 width="1080px" height="1080px" viewBox="0 0 1080 1080" enable-background="new 0 0 1080 1080" xml:space="preserve">
<g>
	
		<line fill="none" stroke="#FF0000" stroke-width="0.5" stroke-miterlimit="10" x1="-265.128" y1="540.002" x2="1345.128" y2="540.002"/>
	
		<line fill="none" stroke="#FF0000" stroke-width="0.5" stroke-miterlimit="10" x1="-247.534" y1="707.396" x2="1327.534" y2="372.605"/>
	
		<line fill="none" stroke="#FF0000" stroke-width="0.5" stroke-miterlimit="10" x1="-195.521" y1="867.476" x2="1275.521" y2="212.525"/>
	
		<line fill="none" stroke="#FF0000" stroke-width="0.5" stroke-miterlimit="10" x1="-111.361" y1="1013.244" x2="1191.361" y2="66.758"/>
	
		<line fill="none" stroke="#FF0000" stroke-width="0.5" stroke-miterlimit="10" x1="1.265" y1="1138.327" x2="1078.734" y2="-58.327"/>
	
		<line fill="none" stroke="#FF0000" stroke-width="0.5" stroke-miterlimit="10" x1="137.436" y1="1237.261" x2="942.562" y2="-157.262"/>
	
		<line fill="none" stroke="#FF0000" stroke-width="0.5" stroke-miterlimit="10" x1="291.201" y1="1305.723" x2="788.796" y2="-225.722"/>
	
		<line fill="none" stroke="#FF0000" stroke-width="0.5" stroke-miterlimit="10" x1="455.841" y1="1340.717" x2="624.156" y2="-260.717"/>
	
		<line fill="none" stroke="#FF0000" stroke-width="0.5" stroke-miterlimit="10" x1="624.159" y1="1340.716" x2="455.838" y2="-260.717"/>
	
		<line fill="none" stroke="#FF0000" stroke-width="0.5" stroke-miterlimit="10" x1="788.798" y1="1305.72" x2="291.198" y2="-225.722"/>
	
		<line fill="none" stroke="#FF0000" stroke-width="0.5" stroke-miterlimit="10" x1="942.562" y1="1237.259" x2="137.432" y2="-157.261"/>
	
		<line fill="none" stroke="#FF0000" stroke-width="0.5" stroke-miterlimit="10" x1="1078.734" y1="1138.324" x2="1.26" y2="-58.325"/>
	
		<line fill="none" stroke="#FF0000" stroke-width="0.5" stroke-miterlimit="10" x1="1191.36" y1="1013.239" x2="-111.366" y2="66.76"/>
	
		<line fill="none" stroke="#FF0000" stroke-width="0.5" stroke-miterlimit="10" x1="1275.518" y1="867.474" x2="-195.525" y2="212.527"/>
	
		<line fill="none" stroke="#FF0000" stroke-width="0.5" stroke-miterlimit="10" x1="1327.53" y1="707.396" x2="-247.537" y2="372.606"/>
</g>
</svg>
